<svg xmlns="http://www.w3.org/2000/svg" width="2500" height="1686" viewBox="0 0 2500 1686">
  
    <polygon points="0,0 1350,0 1250,126 0,126" fill="#9ACD32" />
    <polygon points="1350,0 2500,0 2500,126 1250,126" fill="#171717" />
    <text x="625" y="87" font-family="Noto Sans CJK TC" font-weight="bold" font-size="60" fill="#171717" text-anchor="middle">新增</text>
    <text x="1875" y="87" font-family="Noto Sans CJK TC" font-weight="bold" font-size="60" fill="#8C8C8C" text-anchor="middle">查詢</text>
  
    <g>
      <rect x="0" y="126" width="833" height="1560" fill="#1873D6" />
      <line x1="683" y1="296" x2="813" y2="166" stroke="#FFFFFF" stroke-opacity="0.55" stroke-width="14" stroke-linecap="round" /><line x1="709" y1="296" x2="839" y2="166" stroke="#FFFFFF" stroke-opacity="0.55" stroke-width="14" stroke-linecap="round" /><line x1="735" y1="296" x2="865" y2="166" stroke="#FFFFFF" stroke-opacity="0.55" stroke-width="14" stroke-linecap="round" />
      
    <g transform="translate(416.5,746)" fill="none" stroke="#FFFFFF" stroke-width="18" stroke-linecap="round" stroke-linejoin="round">
      <rect x="-95" y="-75" width="190" height="160" rx="20" />
      <line x1="-50" y1="-105" x2="-50" y2="-60" />
      <line x1="50" y1="-105" x2="50" y2="-60" />
      <line x1="-95" y1="-15" x2="95" y2="-15" />
    </g>
      
    <text x="422.5" y="1172" font-family="Noto Sans CJK TC" font-weight="bold" font-size="66" fill="#000000" fill-opacity="0.35" text-anchor="middle">新增行程</text>
    <text x="416.5" y="1166" font-family="Noto Sans CJK TC" font-weight="bold" font-size="66" fill="#FFFFFF" text-anchor="middle">新增行程</text>
    </g>
  
    <g>
      <rect x="833" y="126" width="833" height="1560" fill="#9ACD32" />
      <line x1="1516" y1="296" x2="1646" y2="166" stroke="#FFFFFF" stroke-opacity="0.55" stroke-width="14" stroke-linecap="round" /><line x1="1542" y1="296" x2="1672" y2="166" stroke="#FFFFFF" stroke-opacity="0.55" stroke-width="14" stroke-linecap="round" /><line x1="1568" y1="296" x2="1698" y2="166" stroke="#FFFFFF" stroke-opacity="0.55" stroke-width="14" stroke-linecap="round" />
      
    <g transform="translate(1249.5,746) rotate(-45)" stroke-linejoin="round">
      <polygon points="-115,-19 65,-19 115,0 65,19 -115,19" fill="#FFFFFF" />
      <line x1="60" y1="-19" x2="60" y2="19" stroke="#000000" stroke-opacity="0.25" stroke-width="8" />
    </g>
      
    <text x="1255.5" y="1172" font-family="Noto Sans CJK TC" font-weight="bold" font-size="66" fill="#000000" fill-opacity="0.35" text-anchor="middle">新增待辦</text>
    <text x="1249.5" y="1166" font-family="Noto Sans CJK TC" font-weight="bold" font-size="66" fill="#FFFFFF" text-anchor="middle">新增待辦</text>
    </g>
  
    <g>
      <rect x="1666" y="126" width="834" height="1560" fill="#17A398" />
      <line x1="2350" y1="296" x2="2480" y2="166" stroke="#FFFFFF" stroke-opacity="0.55" stroke-width="14" stroke-linecap="round" /><line x1="2376" y1="296" x2="2506" y2="166" stroke="#FFFFFF" stroke-opacity="0.55" stroke-width="14" stroke-linecap="round" /><line x1="2402" y1="296" x2="2532" y2="166" stroke="#FFFFFF" stroke-opacity="0.55" stroke-width="14" stroke-linecap="round" />
      
    <g transform="translate(2083,746)" fill="none" stroke="#FFFFFF" stroke-width="18" stroke-linecap="round" stroke-linejoin="round">
      <circle cx="0" cy="0" r="92" />
      <line x1="0" y1="0" x2="0" y2="-58" stroke-width="14" />
      <line x1="0" y1="0" x2="42" y2="24" stroke-width="14" />
    </g>
    <circle cx="2083" cy="746" r="10" fill="#FFFFFF" />
      
    <text x="2089" y="1172" font-family="Noto Sans CJK TC" font-weight="bold" font-size="66" fill="#000000" fill-opacity="0.35" text-anchor="middle">新增空檔</text>
    <text x="2083" y="1166" font-family="Noto Sans CJK TC" font-weight="bold" font-size="66" fill="#FFFFFF" text-anchor="middle">新增空檔</text>
    </g>
</svg>